<svg id="Group_285" data-name="Group 285" xmlns="http://www.w3.org/2000/svg" xmlns:xlink="http://www.w3.org/1999/xlink" width="21.93" height="20.955" viewBox="0 0 21.93 20.955">
  <defs>
    <clipPath id="clip-path">
      <rect id="Rectangle_7611" data-name="Rectangle 7611" width="21.93" height="20.955" transform="translate(0 0)" fill="none"/>
    </clipPath>
  </defs>
  <g id="Group_284" data-name="Group 284" clip-path="url(#clip-path)">
    <path id="Path_124527" data-name="Path 124527" d="M10.965,2.126l2.166,4.388a2.5,2.5,0,0,0,1.884,1.369l4.843.7L16.354,12a2.5,2.5,0,0,0-.72,2.215l.827,4.824L12.13,16.764a2.508,2.508,0,0,0-2.33,0L5.469,19.042,6.3,14.219A2.5,2.5,0,0,0,5.576,12l-3.5-3.416,4.842-.7A2.5,2.5,0,0,0,8.8,6.514Zm0-2.126a.991.991,0,0,0-.9.559L7.454,5.85A1,1,0,0,1,6.7,6.4L.86,7.247A1,1,0,0,0,.3,8.958l4.225,4.119a1,1,0,0,1,.288.888l-1,5.815a1,1,0,0,0,1.456,1.058L10.5,18.092a1.006,1.006,0,0,1,.934,0l5.222,2.746A1,1,0,0,0,18.11,19.78l-1-5.815a1.006,1.006,0,0,1,.289-.888l4.225-4.119a1,1,0,0,0-.556-1.711L15.231,6.4a1,1,0,0,1-.755-.549L11.865.559a.991.991,0,0,0-.9-.559" fill="#fd925c"/>
  </g>
</svg>
