<svg xmlns="http://www.w3.org/2000/svg" width="21.93" height="20.955" viewBox="0 0 21.93 20.955">
  <path id="Path_124524" data-name="Path 124524" d="M11.865.559,14.476,5.85a1,1,0,0,0,.756.549l5.838.848a1,1,0,0,1,.556,1.711L17.4,13.077a1,1,0,0,0-.288.888l1,5.815a1,1,0,0,1-1.456,1.057l-5.222-2.745a1,1,0,0,0-.934,0L5.276,20.837A1,1,0,0,1,3.82,19.78l1-5.815a1,1,0,0,0-.289-.888L.3,8.958A1,1,0,0,1,.86,7.247L6.7,6.4a1,1,0,0,0,.755-.549L10.066.559a1,1,0,0,1,1.8,0" transform="translate(0 0)" fill="#fd925c"/>
</svg>
