<svg xmlns="http://www.w3.org/2000/svg" width="27.757" height="28" viewBox="0 0 27.757 28">
  <g id="Group_277" data-name="Group 277" transform="translate(-273 -998)">
    <path id="Path_124517" data-name="Path 124517" d="M11.253,22a1.177,1.177,0,0,1-1.209-.942v-.006a1.978,1.978,0,0,0-.723-1.081,7.216,7.216,0,0,1-2.778-4.7,7.371,7.371,0,0,1,5.836-8.4,8.018,8.018,0,0,1,1.493-.142,7.338,7.338,0,0,1,6.4,3.618,7.416,7.416,0,0,1-1.652,9.49,2.93,2.93,0,0,0-.745.8,2.542,2.542,0,0,0-.148.321l0,.009a1.5,1.5,0,0,1-.558.819,1.557,1.557,0,0,1-.953.219H12.563c-.523,0-.922,0-1.3,0ZM13.87,8.723a6.011,6.011,0,0,0-1.119.106,5.374,5.374,0,0,0-3.243,2.059,5.3,5.3,0,0,0-.99,4.077A5.208,5.208,0,0,0,10.555,18.4,4.082,4.082,0,0,1,11.793,20h4.162q.072-.16.158-.319a4.76,4.76,0,0,1,1.224-1.386,5.4,5.4,0,0,0,1.208-6.94A5.356,5.356,0,0,0,13.87,8.723Z" transform="translate(273 998)" fill="#3a3a3a"/>
    <path id="Path_124518" data-name="Path 124518" d="M16.428,23.243a1.156,1.156,0,0,1,1.208,1.285c-.007.117,0,.248,0,.387a4.453,4.453,0,0,1-.044.906A2.6,2.6,0,0,1,15.017,28c-.655,0-1.309,0-1.962,0h-.243a2.613,2.613,0,0,1-2.63-2.218,5.382,5.382,0,0,1-.057-1.011c0-.131,0-.255,0-.37a1.115,1.115,0,0,1,.3-.824,1.088,1.088,0,0,1,.793-.328c.031,0,.063,0,.095,0q1.62,0,3.244,0h.655c.478,0,.846,0,1.191-.007ZM15.215,25.25l-1.314,0h-1.77a1.767,1.767,0,0,0,.021.185.608.608,0,0,0,.664.564h.245c.647,0,1.295,0,1.942,0a.593.593,0,0,0,.618-.518,1.519,1.519,0,0,0,.018-.23Z" transform="translate(273 998)" fill="#3a3a3a"/>
    <path id="Line_57" data-name="Line 57" d="M0,4.229a1,1,0,0,1-1-1V0A1,1,0,0,1,0-1,1,1,0,0,1,1,0V3.229A1,1,0,0,1,0,4.229Z" transform="translate(286.917 999)" fill="#3a3a3a"/>
    <path id="Line_58" data-name="Line 58" d="M2.283,3.283a1,1,0,0,1-.707-.293L-.707.707a1,1,0,0,1,0-1.414,1,1,0,0,1,1.414,0L2.99,1.576a1,1,0,0,1-.707,1.707Z" transform="translate(278.164 1002.626)" fill="#3a3a3a"/>
    <path id="Line_59" data-name="Line 59" d="M2.283,3.283a1,1,0,0,1-.707-.293L-.707.707a1,1,0,0,1,0-1.414,1,1,0,0,1,1.414,0L2.99,1.576a1,1,0,0,1-.707,1.707Z" transform="translate(293.387 1018.849)" fill="#3a3a3a"/>
    <path id="Line_60" data-name="Line 60" d="M0,3.283A1,1,0,0,1-.707,2.99a1,1,0,0,1,0-1.414L1.576-.707a1,1,0,0,1,1.414,0,1,1,0,0,1,0,1.414L.707,2.99A1,1,0,0,1,0,3.283Z" transform="translate(278.164 1018.848)" fill="#3a3a3a"/>
    <path id="Line_61" data-name="Line 61" d="M0,3.283A1,1,0,0,1-.707,2.99a1,1,0,0,1,0-1.414L1.576-.707a1,1,0,0,1,1.414,0,1,1,0,0,1,0,1.414L.707,2.99A1,1,0,0,1,0,3.283Z" transform="translate(293.387 1002.625)" fill="#3a3a3a"/>
    <path id="Line_62" data-name="Line 62" d="M3.44,1H0A1,1,0,0,1-1,0,1,1,0,0,1,0-1H3.44a1,1,0,0,1,1,1A1,1,0,0,1,3.44,1Z" transform="translate(274 1011.917)" fill="#3a3a3a"/>
    <path id="Line_63" data-name="Line 63" d="M3.44,1H0A1,1,0,0,1-1,0,1,1,0,0,1,0-1H3.44a1,1,0,0,1,1,1A1,1,0,0,1,3.44,1Z" transform="translate(296.317 1011.917)" fill="#3a3a3a"/>
  </g>
</svg>
