<svg xmlns="http://www.w3.org/2000/svg" width="10.671" height="10.211" viewBox="0 0 10.671 10.211">
  <g id="Group_271" data-name="Group 271" transform="translate(-738.829 -673.395)">
    <g id="Group_252" data-name="Group 252" transform="translate(278.638 136.367)">
      <path id="Path_124506" data-name="Path 124506" d="M4652.25,6797.562a1,1,0,0,1-.687-1.726l8.671-8.211a1,1,0,0,1,1.375,1.452l-8.671,8.211A1,1,0,0,1,4652.25,6797.562Z" transform="translate(-4191.06 -6250.323)" fill="#3a3a3a"/>
      <path id="Path_124507" data-name="Path 124507" d="M4660.921,6797.562a1,1,0,0,1-.687-.274l-8.671-8.211a1,1,0,1,1,1.375-1.452l8.671,8.211a1,1,0,0,1-.687,1.726Z" transform="translate(-4191.06 -6250.323)" fill="#3a3a3a"/>
    </g>
  </g>
</svg>
