<svg id="Group_292" data-name="Group 292" xmlns="http://www.w3.org/2000/svg" xmlns:xlink="http://www.w3.org/1999/xlink" width="14" height="14" viewBox="0 0 14 14">
  <defs>
    <clipPath id="clip-path">
      <rect id="Rectangle_9353" data-name="Rectangle 9353" width="14" height="14" fill="none"/>
    </clipPath>
  </defs>
  <g id="Group_291" data-name="Group 291" clip-path="url(#clip-path)">
    <path id="Path_124533" data-name="Path 124533" d="M11.594,14H2.406A2.409,2.409,0,0,1,0,11.594V2.406A2.409,2.409,0,0,1,2.406,0H5A1,1,0,0,1,5,2H2.406A.406.406,0,0,0,2,2.406v9.188A.406.406,0,0,0,2.406,12h9.188A.406.406,0,0,0,12,11.594V8a1,1,0,0,1,2,0v3.594A2.409,2.409,0,0,1,11.594,14Z" fill="#3a3a3a"/>
    <path id="Path_124534" data-name="Path 124534" d="M4.78,10.331a1,1,0,0,1-.981-1.2L4.4,6.1a1,1,0,0,1,.274-.512L9.508.763A1.848,1.848,0,0,1,10.825.222a1.959,1.959,0,0,1,1.394.584l1.086,1.086a1.956,1.956,0,0,1,.583,1.389,1.849,1.849,0,0,1-.539,1.32L8.519,9.432a1,1,0,0,1-.511.274l-3.032.606A1,1,0,0,1,4.78,10.331ZM6.306,6.792,6.054,8.057,7.319,7.8l4.534-4.535L10.842,2.257Z" fill="#3a3a3a"/>
  </g>
</svg>
