<?xml version="1.0" encoding="utf-8"?>
<!-- Generator: Adobe Illustrator 25.2.3, SVG Export Plug-In . SVG Version: 6.00 Build 0)  -->
<svg version="1.1" id="Warstwa_1" xmlns="http://www.w3.org/2000/svg" xmlns:xlink="http://www.w3.org/1999/xlink" x="0px" y="0px"
	 viewBox="0 0 33 33" style="enable-background:new 0 0 33 33;" xml:space="preserve">
<style type="text/css">
	.st0{fill:#FD925C;}
</style>
<g id="Group_280">
	<g id="Ellipse_1">
		<path class="st0" d="M16.5,32.5c-8.8222656,0-16-7.1777344-16-16s7.1777344-16,16-16s16,7.1777344,16,16
			S25.3222656,32.5,16.5,32.5z M16.5,2.5c-7.7197266,0-14,6.2802734-14,14s6.2802734,14,14,14s14-6.2802734,14-14
			S24.2197266,2.5,16.5,2.5z"/>
	</g>
	<g id="Line_64">
		<path class="st0" d="M16.5,18.5c-0.5527344,0-1-0.4472656-1-1v-8c0-0.5527344,0.4472656-1,1-1s1,0.4472656,1,1v8
			C17.5,18.0527344,17.0527344,18.5,16.5,18.5z"/>
	</g>
	<g id="Line_65">
		<path class="st0" d="M16.5009766,23.4951172c-0.1396484,0-0.2597656-0.0195312-0.3798828-0.0693359
			c-0.1298828-0.0507812-0.2294922-0.1201172-0.3300781-0.2207031c-0.0898438-0.0898438-0.1699219-0.1992188-0.2197266-0.3193359
			c-0.0498047-0.1298828-0.0703125-0.25-0.0703125-0.390625c0-0.2597656,0.1103516-0.5195312,0.2900391-0.6992188
			c0.2802734-0.2802734,0.7197266-0.3701172,1.0898438-0.2207031c0.1201172,0.0498047,0.2304688,0.1298828,0.3300781,0.2207031
			c0.0898438,0.0898438,0.1601562,0.1992188,0.2099609,0.3193359s0.0800781,0.25,0.0800781,0.3798828
			c0,0.140625-0.0302734,0.2705078-0.0800781,0.390625s-0.1201172,0.2294922-0.2099609,0.3193359
			c-0.0996094,0.1005859-0.2099609,0.1699219-0.3300781,0.2207031
			C16.7607422,23.4755859,16.6308594,23.4951172,16.5009766,23.4951172z"/>
	</g>
</g>
</svg>
