<svg id="Group_290" data-name="Group 290" xmlns="http://www.w3.org/2000/svg" xmlns:xlink="http://www.w3.org/1999/xlink" width="14" height="14" viewBox="0 0 14 14">
  <defs>
    <clipPath id="clip-path">
      <rect id="Rectangle_9351" data-name="Rectangle 9351" width="14" height="14" fill="none"/>
    </clipPath>
  </defs>
  <g id="Group_289" data-name="Group 289" clip-path="url(#clip-path)">
    <path id="Path_124529" data-name="Path 124529" d="M1,5A1,1,0,0,1,0,4V2.143A2.145,2.145,0,0,1,2.143,0H4A1,1,0,0,1,4,2H2.143A.143.143,0,0,0,2,2.143V4A1,1,0,0,1,1,5Z" fill="#3a3a3a"/>
    <path id="Path_124530" data-name="Path 124530" d="M4,14H2.143A2.145,2.145,0,0,1,0,11.857V10a1,1,0,0,1,2,0v1.857A.143.143,0,0,0,2.143,12H4a1,1,0,0,1,0,2Z" fill="#3a3a3a"/>
    <path id="Path_124531" data-name="Path 124531" d="M11.857,14H10a1,1,0,0,1,0-2h1.857A.143.143,0,0,0,12,11.857V10a1,1,0,0,1,2,0v1.857A2.145,2.145,0,0,1,11.857,14Z" fill="#3a3a3a"/>
    <path id="Path_124532" data-name="Path 124532" d="M13,5a1,1,0,0,1-1-1V2.143A.143.143,0,0,0,11.857,2H10a1,1,0,0,1,0-2h1.857A2.145,2.145,0,0,1,14,2.143V4A1,1,0,0,1,13,5Z" fill="#3a3a3a"/>
  </g>
</svg>
