<svg xmlns="http://www.w3.org/2000/svg" width="696" height="392" viewBox="0 0 696 392">
  <g id="Group_284" data-name="Group 284" transform="translate(-1000 -473)">
    <rect id="Rectangle_7504" data-name="Rectangle 7504" width="696" height="392" transform="translate(1000 473)" fill="#f9fafb"/>
    <path id="Path_6870" data-name="Path 6870" d="M571.68,408H514.1a12,12,0,0,0-12,12v33.966a11.951,11.951,0,0,0,3.362,8.318l26.249-31.66a3.929,3.929,0,0,1,6.049,0l10.641,12.83a3.929,3.929,0,0,0,6.049,0l1.333-1.606a3.929,3.929,0,0,1,6.049,0L579.458,463.1a11.966,11.966,0,0,0,4.224-9.129V420A12,12,0,0,0,571.68,408Zm-9.358,22.046a7.332,7.332,0,1,1,7.333-7.332A7.333,7.333,0,0,1,562.322,430.045Z" transform="translate(805.075 233.388)" fill="#eaedef"/>
  </g>
</svg>
