<svg xmlns="http://www.w3.org/2000/svg" width="25" height="25" viewBox="0 0 25 25">
  <g id="Group_12056" data-name="Group 12056" transform="translate(-1358.052 -496)">
    <path id="Path_129206" data-name="Path 129206" d="M-.006-7.356a1.076,1.076,0,0,0,1.164-1.08A1.051,1.051,0,0,0-.006-9.444,1.07,1.07,0,0,0-1.17-8.4,1.07,1.07,0,0,0-.006-7.356ZM-.942,0H.93V-6.456H-.942Z" transform="translate(1370.552 513.5)" fill="#fd925c"/>
    <path id="Rectangle_9228" data-name="Rectangle 9228" d="M6,1A5.006,5.006,0,0,0,1,6V19a5.006,5.006,0,0,0,5,5H19a5.006,5.006,0,0,0,5-5V6a5.006,5.006,0,0,0-5-5H6M6,0H19a6,6,0,0,1,6,6V19a6,6,0,0,1-6,6H6a6,6,0,0,1-6-6V6A6,6,0,0,1,6,0Z" transform="translate(1358.052 496)" fill="#fd925c"/>
  </g>
</svg>
