<svg xmlns="http://www.w3.org/2000/svg" xmlns:xlink="http://www.w3.org/1999/xlink" width="14" height="13.923" viewBox="0 0 14 13.923">
  <defs>
    <clipPath id="clip-path">
      <rect id="Rectangle_9355" data-name="Rectangle 9355" width="14" height="13.923" transform="translate(0 0)" fill="none"/>
    </clipPath>
  </defs>
  <g id="Group_294" data-name="Group 294" transform="translate(0 0)">
    <g id="Group_293" data-name="Group 293" clip-path="url(#clip-path)">
      <path id="Line_68" data-name="Line 68" d="M0,9A1,1,0,0,1-1,8V0A1,1,0,0,1,0-1,1,1,0,0,1,1,0V8A1,1,0,0,1,0,9Z" transform="translate(7 1)" fill="#3a3a3a"/>
      <path id="Line_69" data-name="Line 69" d="M3.746,4.7a1,1,0,0,1-.7-.288L-.7.712A1,1,0,0,1-.712-.7,1,1,0,0,1,.7-.712l3.746,3.7a1,1,0,0,1-.7,1.712Z" transform="translate(3.254 5.931)" fill="#3a3a3a"/>
      <path id="Line_70" data-name="Line 70" d="M0,4.7a1,1,0,0,1-.712-.3A1,1,0,0,1-.7,2.985l3.746-3.7A1,1,0,0,1,4.458-.7,1,1,0,0,1,4.448.712L.7,4.409A1,1,0,0,1,0,4.7Z" transform="translate(7 5.931)" fill="#3a3a3a"/>
      <path id="Path_124535" data-name="Path 124535" d="M11.694,13.923H2.306A2.36,2.36,0,0,1,0,11.517v-.44a1,1,0,0,1,2,0v.44c0,.22.14.406.306.406h9.388c.166,0,.306-.186.306-.406v-.44a1,1,0,0,1,2,0v.44A2.36,2.36,0,0,1,11.694,13.923Z" fill="#3a3a3a"/>
    </g>
  </g>
</svg>
