<svg id="Group_279" data-name="Group 279" xmlns="http://www.w3.org/2000/svg" xmlns:xlink="http://www.w3.org/1999/xlink" width="23.13" height="22" viewBox="0 0 23.13 22">
  <defs>
    <clipPath id="clip-path">
      <rect id="Rectangle_7605" data-name="Rectangle 7605" width="23.13" height="22" fill="none"/>
    </clipPath>
  </defs>
  <g id="Group_278" data-name="Group 278" clip-path="url(#clip-path)">
    <path id="Path_124519" data-name="Path 124519" d="M8.393,22a2.327,2.327,0,0,1-.815-.148A11.469,11.469,0,0,1,4.24,19.923a2.277,2.277,0,0,1-.626-2.716,1.687,1.687,0,0,0-.325-1.932,1.575,1.575,0,0,0-1.009-.522A2.3,2.3,0,0,1,.127,12.643,10.773,10.773,0,0,1,.221,8.834a2.288,2.288,0,0,1,2.038-1.86A1.739,1.739,0,0,0,3.713,4.6a2.3,2.3,0,0,1,.81-2.763A11.581,11.581,0,0,1,7.492.175,2.565,2.565,0,0,1,8.4,0a2.291,2.291,0,0,1,1.765.85,1.862,1.862,0,0,0,1.4.7A1.845,1.845,0,0,0,12.964.858,2.278,2.278,0,0,1,14.728,0a2.623,2.623,0,0,1,.929.18,11.48,11.48,0,0,1,3.214,1.863,2.308,2.308,0,0,1,.76,2.647,1.826,1.826,0,0,0,.115,1.534,1.807,1.807,0,0,0,1.264.849,2.3,2.3,0,0,1,1.94,1.938,10.628,10.628,0,0,1-.018,3.956,2.323,2.323,0,0,1-1.966,1.877,1.741,1.741,0,0,0-1.408,2.41,2.288,2.288,0,0,1-.724,2.7,11.627,11.627,0,0,1-2.963,1.768,2.431,2.431,0,0,1-.926.188,2.3,2.3,0,0,1-1.809-.9,1.741,1.741,0,0,0-2.875.039A2.309,2.309,0,0,1,8.417,22ZM8.4,2a.6.6,0,0,0-.2.045A9.584,9.584,0,0,0,5.744,3.419c-.217.168-.241.248-.149.505a3.785,3.785,0,0,1-.3,3.262A3.8,3.8,0,0,1,2.521,8.957c-.271.036-.312.136-.34.273a8.777,8.777,0,0,0-.078,3.1.736.736,0,0,0,.108.338.756.756,0,0,0,.345.1,3.59,3.59,0,0,1,2.232,1.178,3.659,3.659,0,0,1,.683,4c-.118.3-.019.378.047.432a9.475,9.475,0,0,0,2.758,1.594A.324.324,0,0,0,8.391,20c.092,0,.168-.017.283-.167a3.736,3.736,0,0,1,6.023-.081c.124.155.216.155.251.155a.454.454,0,0,0,.166-.038,9.627,9.627,0,0,0,2.453-1.464.321.321,0,0,0,.12-.451,3.739,3.739,0,0,1,2.981-5.088.315.315,0,0,0,.3-.27,8.639,8.639,0,0,0,.018-3.216c-.046-.243-.1-.3-.339-.342A3.829,3.829,0,0,1,18.02,7.232a3.846,3.846,0,0,1-.28-3.19c.07-.206.061-.291-.136-.452a9.484,9.484,0,0,0-2.655-1.539A.641.641,0,0,0,14.728,2c-.036,0-.11,0-.248.161a3.813,3.813,0,0,1-2.908,1.387A3.829,3.829,0,0,1,8.653,2.156C8.519,2,8.441,2,8.4,2Zm3.171,13.517h-.005a4.521,4.521,0,1,1,.017-9.042h0a4.526,4.526,0,0,1,4.5,4.507,4.526,4.526,0,0,1-4.515,4.535Zm.011-8.042v1a2.537,2.537,0,0,0-1.8.739,2.48,2.48,0,0,0-.74,1.773,2.536,2.536,0,0,0,2.526,2.531,2.49,2.49,0,0,0,1.778-.74,2.528,2.528,0,0,0,.739-1.795,2.526,2.526,0,0,0-2.5-2.507Z" fill="#fff"/>
  </g>
</svg>
